:FULLY-SPECIFIED
:FORCE-ALL-JOINTS-BE-3DOF
:DEGREES
612
root -4.29494 15.7669 -40.5009 357.08 -74.4317 369.102
lfemur -7.03126 13.2252 -15.7312
ltibia 42.7874 0 0
lfoot -21.4531 28.7559 0
ltoes -23.524 0 0
rfemur -44.0264 -32.2549 18.2902
rtibia 81.8339 0 0
rfoot -13.4866 -18.234 0
rtoes 3.18246 0 0
lowerback 11.4248 4.98522 -6.50724
upperback -2.37566 5.56284 -1.24181
thorax -9.48405 2.98776 1.21015
lowerneck 2.0504 -10.9115 -11.8391
upperneck -1.01221 -14.8648 11.756
head 1.14408 -7.48703 5.10673
lclavicle -6.5073e-015 2.57477e-014 0
lhumerus -72.4505 -24.5872 105.296
lradius 102.486 0 0
lwrist 56.1061 0 0
lhand 8.19635 56.3271 0
lfingers 7.12502 0 0
lthumb 33.4018 83.1162 0
rclavicle -6.5073e-015 2.57477e-014 0
rhumerus 26.3924 26.3345 -44.0927
rradius 113.141 0 0
rwrist -23.2488 0 0
rhand -14.9012 -28.5392 0
rfingers 7.12502 0 0
rthumb 11.2623 -58.2298 0
613
root -4.31769 15.7632 -40.4793 357.429 -74.8989 368.95
lfemur -6.9667 13.3303 -15.8105
ltibia 42.8266 0 0
lfoot -21.5589 29.1306 0
ltoes -23.6176 0 0
rfemur -43.6124 -32.576 18.7749
rtibia 81.7354 0 0
rfoot -14.3124 -18.9936 0
rtoes 2.60356 0 0
lowerback 11.1275 5.01701 -6.5494
upperback -2.48343 5.60967 -1.28423
thorax -9.4315 3.01457 1.19856
lowerneck 1.93918 -10.8545 -11.7995
upperneck -0.916861 -14.7839 11.8036
head 1.18022 -7.44383 5.10938
lclavicle -1.25697e-014 2.48444e-014 0
lhumerus -72.8275 -24.5496 105.445
lradius 102.461 0 0
lwrist 55.9502 0 0
lhand 6.98889 55.7245 0
lfingers 7.12502 0 0
lthumb 32.2485 82.6982 0
rclavicle -1.25697e-014 2.48444e-014 0
rhumerus 26.5774 25.3511 -44.2239
rradius 112.235 0 0
rwrist -23.5679 0 0
rhand -15.7365 -28.5612 0
rfingers 7.12502 0 0
rthumb 10.4573 -58.2953 0
614
root -4.34044 15.7594 -40.4578 357.741 -75.4069 368.862
lfemur -6.82076 13.4421 -15.8816
ltibia 42.7979 0 0
lfoot -21.6754 29.5541 0
ltoes -23.7461 0 0
rfemur -43.1815 -32.8483 19.2323
rtibia 81.4459 0 0
rfoot -15.1528 -19.7688 0
rtoes 1.95325 0 0
lowerback 10.7992 5.05205 -6.60068
upperback -2.59759 5.66017 -1.33082
thorax -9.36826 3.04381 1.1893
lowerneck 1.82037 -10.7967 -11.7576
upperneck -0.82803 -14.7007 11.8561
head 1.21515 -7.3992 5.11311
lclavicle -1.92328e-014 2.36518e-014 0
lhumerus -73.2919 -24.4841 105.626
lradius 102.426 0 0
lwrist 55.8244 0 0
lhand 5.59436 55.0882 0
lfingers 7.12502 0 0
lthumb 30.917 82.2794 0
rclavicle -1.92328e-014 2.36518e-014 0
rhumerus 26.6925 24.3963 -44.394
rradius 111.062 0 0
rwrist -23.8847 0 0
rhand -16.5785 -28.5998 0
rfingers 7.12502 0 0
rthumb 9.64554 -58.3717 0
615
root -4.36319 15.7557 -40.4362 358.03 -75.949 368.819
lfemur -6.6114 13.5586 -15.9454
ltibia 42.7166 0 0
lfoot -21.7988 30.0153 0
ltoes -23.9026 0 0
rfemur -42.7337 -33.0742 19.664
rtibia 80.9835 0 0
rfoot -16.003 -20.5551 0
rtoes 1.24064 0 0
lowerback 10.4459 5.08936 -6.65755
upperback -2.71674 5.71357 -1.38005
thorax -9.29612 3.07492 1.1818
lowerneck 1.69494 -10.7375 -11.7135
upperneck -0.7456 -14.6149 11.912
head 1.24868 -7.35298 5.11749
lclavicle -2.63907e-014 2.22073e-014 0
lhumerus -73.8208 -24.3956 105.832
lradius 102.385 0 0
lwrist 55.7159 0 0
lhand 4.04518 54.4209 0
lfingers 7.12502 0 0
lthumb 29.4381 81.8559 0
rclavicle -2.63907e-014 2.22073e-014 0
rhumerus 26.7477 23.4703 -44.5988
rradius 109.655 0 0
rwrist -24.205 0 0
rhand -17.4236 -28.656 0
rfingers 7.12502 0 0
rthumb 8.83043 -58.4606 0
616
root -4.38593 15.752 -40.4146 358.313 -76.5182 368.8
lfemur -6.35659 13.6776 -16.0029
ltibia 42.598 0 0
lfoot -21.9257 30.5031 0
ltoes -24.0803 0 0
rfemur -42.2686 -33.256 20.072
rtibia 80.3665 0 0
rfoot -16.8583 -21.3481 0
rtoes 0.47482 0 0
lowerback 10.0736 5.12802 -6.71653
upperback -2.83946 5.76912 -1.43037
thorax -9.21682 3.10731 1.17547
lowerneck 1.56385 -10.6767 -11.6668
upperneck -0.669457 -14.5261 11.9693
head 1.2806 -7.30499 5.12209
lclavicle -3.39375e-014 2.05482e-014 0
lhumerus -74.3911 -24.2891 106.054
lradius 102.341 0 0
lwrist 55.6122 0 0
lhand 2.37375 53.7252 0
lfingers 7.12502 0 0
lthumb 27.8426 81.4239 0
rclavicle -3.39375e-014 2.05482e-014 0
rhumerus 26.7528 22.5735 -44.8342
rradius 108.045 0 0
rwrist -24.5345 0 0
rhand -18.2684 -28.7309 0
rfingers 7.12502 0 0
rthumb 8.01536 -58.5635 0
617
root -4.40868 15.7483 -40.3931 358.603 -77.1077 368.787
lfemur -6.07429 13.7972 -16.0553
ltibia 42.4574 0 0
lfoot -22.0521 31.0065 0
ltoes -24.2721 0 0
rfemur -41.7862 -33.3963 20.4577
rtibia 79.6132 0 0
rfoot -17.7138 -22.1432 0
rtoes -0.335096 0 0
lowerback 9.68825 5.16705 -6.7741
upperback -2.96435 5.82605 -1.48024
thorax -9.13213 3.14038 1.16974
lowerneck 1.42805 -10.6138 -11.6174
upperneck -0.599485 -14.4337 12.0266
head 1.31074 -7.25506 5.12646
lclavicle -4.17672e-014 1.87116e-014 0
lhumerus -74.98 -24.1698 106.286
lradius 102.295 0 0
lwrist 55.5005 0 0
lhand 0.612496 53.0037 0
lfingers 7.12502 0 0
lthumb 26.1612 80.9799 0
rclavicle -4.17672e-014 1.87116e-014 0
rhumerus 26.7179 21.7065 -45.0962
rradius 106.262 0 0
rwrist -24.879 0 0
rhand -19.1093 -28.8257 0
rfingers 7.12502 0 0
rthumb 7.20372 -58.6818 0
